<svg width="101" height="48" viewBox="0 0 101 48" fill="none" xmlns="http://www.w3.org/2000/svg">
<path d="M15.8782 5.59701C15.8782 4.95546 15.5735 4.41015 14.964 3.96107C14.3866 3.47991 14.0979 3.12706 14.0979 2.90252V2.80629C14.0979 2.42137 14.4347 2.2289 15.1084 2.2289H21.1709C21.7804 2.2289 22.0851 2.42137 22.0851 2.80629V2.90252C22.0851 3.12706 21.9248 3.3516 21.604 3.57614C21.3153 3.80068 21.0106 4.07334 20.6898 4.39411C20.4011 4.71488 20.2567 5.11585 20.2567 5.59701L20.2086 24.1216C20.1765 32.5579 16.7764 36.8081 10.0081 36.8723C8.27591 36.8723 6.73621 36.6156 5.38897 36.1024C4.04173 35.5892 2.98318 34.9155 2.21333 34.0815C1.47555 33.2475 0.9142 32.4135 0.529273 31.5795C0.176424 30.7134 0 29.8955 0 29.1256C0 28.452 0.176424 27.9227 0.529273 27.5378C0.9142 27.1208 1.42743 26.9123 2.06898 26.9123C2.77468 26.9123 3.33603 27.1849 3.75303 27.7303C4.17003 28.2756 4.49081 28.9492 4.71535 29.7511C4.93989 30.521 5.21254 31.3069 5.53331 32.1088C5.88616 32.8786 6.46355 33.5362 7.26548 34.0815C8.06741 34.6269 9.10992 34.8995 10.393 34.8995C11.9969 34.8995 13.312 34.1457 14.3385 32.6381C15.365 31.0984 15.8782 28.9332 15.8782 26.1424V5.59701Z" fill="black"/>
<path d="M47.4779 32.2531C47.4779 33.0551 47.6222 33.6645 47.9109 34.0815C48.1996 34.4985 48.5043 34.7391 48.8251 34.8033C49.1459 34.8354 49.4506 34.9155 49.7393 35.0439C50.028 35.1722 50.1723 35.3807 50.1723 35.6694C50.1723 36.343 49.178 36.6798 47.1892 36.6798C44.7513 36.6798 43.5805 35.4929 43.6767 33.1192L43.5805 32.8305C42.1049 35.525 39.635 36.8723 36.1707 36.8723C33.4762 36.8723 31.311 35.926 29.675 34.0334C28.0712 32.1088 27.2692 29.3983 27.2692 25.9019V17.3854C27.2692 16.6797 26.9645 16.0862 26.355 15.6051C25.7776 15.1239 25.489 14.7871 25.489 14.5947V14.4503C25.489 14.0654 25.7295 13.8248 26.2107 13.7286L30.2524 13.0068C31.1185 12.8464 31.5515 13.0389 31.5515 13.5842L31.5034 26.2387C31.5034 29.0294 31.9846 31.1946 32.9469 32.7343C33.9413 34.2419 35.3527 34.9957 37.1811 34.9957C38.9132 34.9957 40.3567 34.3221 41.5115 32.9749C42.6984 31.6276 43.2918 29.8634 43.2918 27.6821V17.3854C43.2918 16.7117 42.971 16.1344 42.3295 15.6532C41.72 15.172 41.4153 14.8192 41.4153 14.5947V14.4503C41.4153 14.0654 41.6558 13.8248 42.137 13.7286L46.2268 13.0068C47.0609 12.8464 47.4779 13.0389 47.4779 13.5842V32.2531Z" fill="black"/>
<path d="M54.0423 36.3911C53.4328 36.3911 53.1281 36.1826 53.1281 35.7656V35.6212C53.1281 35.3646 53.4007 35.0278 53.946 34.6108C54.5234 34.1617 54.8121 33.6325 54.8121 33.023V5.98193C54.8121 5.43662 54.6678 4.98754 54.3791 4.63469C54.1225 4.24976 53.8498 3.94503 53.5611 3.72049C53.2724 3.49595 53.1281 3.28745 53.1281 3.09499V2.99876C53.1281 2.74214 53.3526 2.48552 53.8017 2.2289L57.5547 0.400504C58.0359 0.208041 58.4048 0.192003 58.6614 0.352388C58.918 0.480695 59.0463 0.721274 59.0463 1.07412V33.023C59.0463 33.6325 59.3511 34.1617 59.9605 34.6108C60.6021 35.0278 60.9228 35.3646 60.9228 35.6212V35.7656C60.9228 36.1826 60.6021 36.3911 59.9605 36.3911H54.0423Z" fill="black"/>
<path d="M68.4447 8.72453C67.4503 8.72453 66.6644 8.45187 66.087 7.90656C65.5096 7.36125 65.2209 6.63951 65.2209 5.74135C65.2209 4.84319 65.5096 4.12146 66.087 3.57614C66.6965 2.99875 67.4824 2.71006 68.4447 2.71006C69.3749 2.71006 70.1287 2.99875 70.7061 3.57614C71.2835 4.12146 71.5722 4.84319 71.5722 5.74135C71.5722 6.63951 71.2835 7.36125 70.7061 7.90656C70.1287 8.45187 69.3749 8.72453 68.4447 8.72453ZM65.654 36.3911C65.0445 36.3911 64.7398 36.1826 64.7398 35.7656V35.5731C64.7398 35.3486 64.8841 35.1401 65.1728 34.9476C65.4615 34.7231 65.7502 34.4665 66.0389 34.1778C66.3276 33.857 66.4719 33.456 66.4719 32.9749V18.6364C66.4719 17.8986 66.1832 17.2571 65.6059 16.7118C65.0285 16.1664 64.7398 15.8136 64.7398 15.6532V15.557C64.7398 15.3324 64.9803 15.0919 65.4615 14.8352L69.1664 13.0068C69.6797 12.8144 70.0485 12.7823 70.2731 12.9106C70.5297 13.0389 70.658 13.2955 70.658 13.6805V32.9749C70.658 33.3598 70.7542 33.6966 70.9467 33.9853C71.1392 34.2419 71.3637 34.4344 71.6203 34.5627C71.8769 34.691 72.1015 34.8514 72.2939 35.0439C72.4864 35.2042 72.5826 35.3807 72.5826 35.5731V35.7656C72.5826 36.1826 72.2458 36.3911 71.5722 36.3911H65.654Z" fill="black"/>
<path d="M89.1424 12.8144C92.1897 12.8144 94.7879 13.905 96.9371 16.0862C99.1184 18.2354 100.209 21.0422 100.209 24.5065C100.209 28.035 99.1344 30.9861 96.9852 33.3598C94.8681 35.7014 92.2699 36.8723 89.1905 36.8723C86.2394 36.8723 83.8657 35.7656 82.0693 33.5523V43.8972C82.0693 44.4104 82.2297 44.8274 82.5505 45.1482C82.8713 45.4689 83.176 45.7256 83.4647 45.918C83.7855 46.1426 83.9459 46.3671 83.9459 46.5916V46.736C83.9459 47.153 83.6251 47.3615 82.9835 47.3615H77.0653C76.3917 47.3615 76.0549 47.153 76.0549 46.736V46.5916C76.0549 46.3992 76.1511 46.2067 76.3436 46.0142C76.536 45.8539 76.7285 45.7095 76.9209 45.5812C77.1455 45.4529 77.354 45.2444 77.5465 44.9557C77.7389 44.667 77.8352 44.3142 77.8352 43.8972V18.3958C77.8352 17.7863 77.5144 17.2571 76.8728 16.808C76.2313 16.3268 75.9105 15.9579 75.9105 15.7013V15.557C75.9105 15.172 76.1671 14.8833 76.6804 14.6909L80.1447 13.0068C81.0429 12.5898 81.4919 12.8144 81.4919 13.6805L81.4438 16.8561C82.1816 15.6051 83.2241 14.6267 84.5714 13.921C85.9507 13.1833 87.4743 12.8144 89.1424 12.8144ZM88.6131 35.3326C90.8264 35.3326 92.5907 34.4665 93.9058 32.7343C95.2531 30.9701 95.9267 28.6124 95.9267 25.6613C95.9267 22.3253 95.2049 19.6147 93.7615 17.5297C92.318 15.4126 90.4254 14.3541 88.0838 14.3541C86.6083 14.3541 85.2771 14.8833 84.0902 15.9419C82.9354 16.9684 82.2618 18.2194 82.0693 19.6949V27.9227C82.0693 29.8474 82.7269 31.5635 84.0421 33.0711C85.3893 34.5787 86.913 35.3326 88.6131 35.3326Z" fill="black"/>
<path d="M66.0868 7.90652C66.6642 8.45183 67.4501 8.72449 68.4445 8.72449C69.3747 8.72449 70.1285 8.45183 70.7059 7.90652C71.2833 7.36121 71.572 6.63947 71.572 5.74131C71.572 4.84315 71.2833 4.12141 70.7059 3.5761C70.1285 2.99871 69.3747 2.71001 68.4445 2.71001C67.4821 2.71001 66.6963 2.99871 66.0868 3.5761C65.5094 4.12141 65.2207 4.84315 65.2207 5.74131C65.2207 6.63947 65.5094 7.36121 66.0868 7.90652Z" fill="#A8BAFF"/>
</svg>
